<mxfile host="app.diagrams.net" modified="2023-02-02T06:03:14.336Z" agent="5.0 (Windows NT 10.0; Win64; x64) AppleWebKit/537.36 (KHTML, like Gecko) Chrome/109.0.0.0 Safari/537.36" etag="gpMSGCJNsgClwi5bPeCq" version="20.8.10" type="github">
  <diagram name="Страница 1" id="7ILIztHlP2EohtNOVcV7">
    <mxGraphModel dx="718" dy="553" grid="1" gridSize="10" guides="1" tooltips="1" connect="1" arrows="1" fold="1" page="1" pageScale="1" pageWidth="827" pageHeight="1169" math="0" shadow="0">
      <root>
        <mxCell id="0" />
        <mxCell id="1" parent="0" />
        <mxCell id="uR3nYqb9deHCnydZUrav-1" value="Начало функции" style="rounded=1;whiteSpace=wrap;html=1;" parent="1" vertex="1">
          <mxGeometry x="340" y="20" width="140" height="60" as="geometry" />
        </mxCell>
        <mxCell id="uR3nYqb9deHCnydZUrav-2" value="" style="endArrow=classic;html=1;rounded=0;exitX=0.5;exitY=1;exitDx=0;exitDy=0;" parent="1" source="uR3nYqb9deHCnydZUrav-1" target="uR3nYqb9deHCnydZUrav-3" edge="1">
          <mxGeometry width="50" height="50" relative="1" as="geometry">
            <mxPoint x="560" y="430" as="sourcePoint" />
            <mxPoint x="414" y="150" as="targetPoint" />
          </mxGeometry>
        </mxCell>
        <mxCell id="uR3nYqb9deHCnydZUrav-3" value="Ввод строки (string_1)" style="shape=parallelogram;perimeter=parallelogramPerimeter;whiteSpace=wrap;html=1;fixedSize=1;" parent="1" vertex="1">
          <mxGeometry x="320" y="160" width="180" height="60" as="geometry" />
        </mxCell>
        <mxCell id="uR3nYqb9deHCnydZUrav-29" style="edgeStyle=orthogonalEdgeStyle;rounded=0;orthogonalLoop=1;jettySize=auto;html=1;exitX=0;exitY=0.5;exitDx=0;exitDy=0;entryX=0.5;entryY=0;entryDx=0;entryDy=0;" parent="1" source="uR3nYqb9deHCnydZUrav-4" target="uR3nYqb9deHCnydZUrav-31" edge="1">
          <mxGeometry relative="1" as="geometry">
            <Array as="points">
              <mxPoint x="110" y="310" />
            </Array>
          </mxGeometry>
        </mxCell>
        <mxCell id="uR3nYqb9deHCnydZUrav-30" value="True" style="edgeLabel;html=1;align=center;verticalAlign=middle;resizable=0;points=[];" parent="uR3nYqb9deHCnydZUrav-29" vertex="1" connectable="0">
          <mxGeometry x="-0.9165" y="-1" relative="1" as="geometry">
            <mxPoint y="-19" as="offset" />
          </mxGeometry>
        </mxCell>
        <mxCell id="uR3nYqb9deHCnydZUrav-4" value="Пустая перем string_1 ?" style="rhombus;whiteSpace=wrap;html=1;" parent="1" vertex="1">
          <mxGeometry x="325" y="270" width="170" height="80" as="geometry" />
        </mxCell>
        <mxCell id="uR3nYqb9deHCnydZUrav-5" value="" style="endArrow=classic;html=1;rounded=0;exitX=1;exitY=0.5;exitDx=0;exitDy=0;entryX=1;entryY=0.5;entryDx=0;entryDy=0;" parent="1" source="uR3nYqb9deHCnydZUrav-4" target="uR3nYqb9deHCnydZUrav-11" edge="1">
          <mxGeometry width="50" height="50" relative="1" as="geometry">
            <mxPoint x="560" y="420" as="sourcePoint" />
            <mxPoint x="570" y="370" as="targetPoint" />
            <Array as="points">
              <mxPoint x="580" y="310" />
              <mxPoint x="580" y="430" />
            </Array>
          </mxGeometry>
        </mxCell>
        <mxCell id="uR3nYqb9deHCnydZUrav-28" value="Fasle" style="edgeLabel;html=1;align=center;verticalAlign=middle;resizable=0;points=[];" parent="uR3nYqb9deHCnydZUrav-5" vertex="1" connectable="0">
          <mxGeometry x="-0.52" y="1" relative="1" as="geometry">
            <mxPoint x="3" y="-9" as="offset" />
          </mxGeometry>
        </mxCell>
        <mxCell id="uR3nYqb9deHCnydZUrav-7" value="" style="endArrow=classic;html=1;rounded=0;exitX=0.5;exitY=1;exitDx=0;exitDy=0;entryX=0.5;entryY=0;entryDx=0;entryDy=0;" parent="1" source="uR3nYqb9deHCnydZUrav-3" target="uR3nYqb9deHCnydZUrav-4" edge="1">
          <mxGeometry width="50" height="50" relative="1" as="geometry">
            <mxPoint x="560" y="420" as="sourcePoint" />
            <mxPoint x="610" y="370" as="targetPoint" />
          </mxGeometry>
        </mxCell>
        <mxCell id="uR3nYqb9deHCnydZUrav-8" value="Символ строки (ind_sim_1) &amp;gt; количество символов строки (Длина(string_1))" style="rhombus;whiteSpace=wrap;html=1;" parent="1" vertex="1">
          <mxGeometry x="260" y="514.5" width="280" height="140" as="geometry" />
        </mxCell>
        <mxCell id="uR3nYqb9deHCnydZUrav-9" value="" style="endArrow=classic;html=1;rounded=0;exitX=1;exitY=0.5;exitDx=0;exitDy=0;entryX=0.5;entryY=0;entryDx=0;entryDy=0;" parent="1" source="uR3nYqb9deHCnydZUrav-8" target="uR3nYqb9deHCnydZUrav-13" edge="1">
          <mxGeometry width="50" height="50" relative="1" as="geometry">
            <mxPoint x="560" y="390" as="sourcePoint" />
            <mxPoint x="640" y="590" as="targetPoint" />
            <Array as="points">
              <mxPoint x="600" y="585" />
            </Array>
          </mxGeometry>
        </mxCell>
        <mxCell id="uR3nYqb9deHCnydZUrav-24" value="False" style="edgeLabel;html=1;align=center;verticalAlign=middle;resizable=0;points=[];" parent="uR3nYqb9deHCnydZUrav-9" vertex="1" connectable="0">
          <mxGeometry x="-0.3478" y="-3" relative="1" as="geometry">
            <mxPoint x="-4" y="-18" as="offset" />
          </mxGeometry>
        </mxCell>
        <mxCell id="uR3nYqb9deHCnydZUrav-10" value="string_2 = string_2+sim_1" style="rounded=0;whiteSpace=wrap;html=1;" parent="1" vertex="1">
          <mxGeometry x="290" y="800" width="170" height="60" as="geometry" />
        </mxCell>
        <mxCell id="hkbdDwHdsubdn9iGQQd6-1" value="" style="edgeStyle=orthogonalEdgeStyle;rounded=0;orthogonalLoop=1;jettySize=auto;html=1;" edge="1" parent="1" source="uR3nYqb9deHCnydZUrav-11" target="uR3nYqb9deHCnydZUrav-8">
          <mxGeometry relative="1" as="geometry" />
        </mxCell>
        <mxCell id="uR3nYqb9deHCnydZUrav-11" value="string_2 = &quot;&quot;;&lt;br&gt;Ind_sim_1 = 1;&lt;br&gt;sim_1 = Прав(Лев(string_1, ind_sim_1),1)" style="rounded=0;whiteSpace=wrap;html=1;" parent="1" vertex="1">
          <mxGeometry x="285" y="400" width="230" height="60" as="geometry" />
        </mxCell>
        <mxCell id="uR3nYqb9deHCnydZUrav-12" value="" style="endArrow=classic;html=1;rounded=0;exitX=0.5;exitY=1;exitDx=0;exitDy=0;entryX=0.5;entryY=0;entryDx=0;entryDy=0;" parent="1" source="uR3nYqb9deHCnydZUrav-11" target="uR3nYqb9deHCnydZUrav-8" edge="1">
          <mxGeometry width="50" height="50" relative="1" as="geometry">
            <mxPoint x="560" y="590" as="sourcePoint" />
            <mxPoint x="610" y="540" as="targetPoint" />
          </mxGeometry>
        </mxCell>
        <mxCell id="uR3nYqb9deHCnydZUrav-20" style="edgeStyle=orthogonalEdgeStyle;rounded=0;orthogonalLoop=1;jettySize=auto;html=1;exitX=1;exitY=0.5;exitDx=0;exitDy=0;entryX=0.5;entryY=1;entryDx=0;entryDy=0;" parent="1" source="uR3nYqb9deHCnydZUrav-13" target="uR3nYqb9deHCnydZUrav-19" edge="1">
          <mxGeometry relative="1" as="geometry" />
        </mxCell>
        <mxCell id="uR3nYqb9deHCnydZUrav-21" value="True" style="edgeLabel;html=1;align=center;verticalAlign=middle;resizable=0;points=[];" parent="uR3nYqb9deHCnydZUrav-20" vertex="1" connectable="0">
          <mxGeometry x="-0.032" y="-1" relative="1" as="geometry">
            <mxPoint x="24" y="93" as="offset" />
          </mxGeometry>
        </mxCell>
        <mxCell id="uR3nYqb9deHCnydZUrav-13" value="Найти(ВерхнийРегистр(sim_1), ВерхнийРегистр(string_2))" style="rhombus;whiteSpace=wrap;html=1;" parent="1" vertex="1">
          <mxGeometry x="484" y="660" width="230" height="110" as="geometry" />
        </mxCell>
        <mxCell id="uR3nYqb9deHCnydZUrav-14" value="" style="endArrow=classic;html=1;rounded=0;exitX=0;exitY=0.5;exitDx=0;exitDy=0;entryX=0.5;entryY=0;entryDx=0;entryDy=0;" parent="1" source="uR3nYqb9deHCnydZUrav-13" target="uR3nYqb9deHCnydZUrav-10" edge="1">
          <mxGeometry width="50" height="50" relative="1" as="geometry">
            <mxPoint x="456" y="715" as="sourcePoint" />
            <mxPoint x="372" y="800" as="targetPoint" />
            <Array as="points">
              <mxPoint x="375" y="715" />
            </Array>
          </mxGeometry>
        </mxCell>
        <mxCell id="uR3nYqb9deHCnydZUrav-15" value="False" style="edgeLabel;html=1;align=center;verticalAlign=middle;resizable=0;points=[];" parent="uR3nYqb9deHCnydZUrav-14" vertex="1" connectable="0">
          <mxGeometry x="0.2521" y="1" relative="1" as="geometry">
            <mxPoint x="54" y="-27" as="offset" />
          </mxGeometry>
        </mxCell>
        <mxCell id="uR3nYqb9deHCnydZUrav-19" value="ind_sim_1 = ind_sim_1 +1;" style="rounded=0;whiteSpace=wrap;html=1;" parent="1" vertex="1">
          <mxGeometry x="650" y="460" width="190" height="60" as="geometry" />
        </mxCell>
        <mxCell id="uR3nYqb9deHCnydZUrav-22" value="" style="endArrow=classic;html=1;rounded=0;exitX=0;exitY=0.5;exitDx=0;exitDy=0;entryX=0.5;entryY=0;entryDx=0;entryDy=0;" parent="1" source="uR3nYqb9deHCnydZUrav-19" target="uR3nYqb9deHCnydZUrav-8" edge="1">
          <mxGeometry width="50" height="50" relative="1" as="geometry">
            <mxPoint x="560" y="550" as="sourcePoint" />
            <mxPoint x="610" y="500" as="targetPoint" />
            <Array as="points">
              <mxPoint x="400" y="490" />
            </Array>
          </mxGeometry>
        </mxCell>
        <mxCell id="uR3nYqb9deHCnydZUrav-23" value="" style="endArrow=classic;html=1;rounded=0;exitX=1;exitY=0.5;exitDx=0;exitDy=0;entryX=1;entryY=0.5;entryDx=0;entryDy=0;" parent="1" source="uR3nYqb9deHCnydZUrav-10" target="uR3nYqb9deHCnydZUrav-19" edge="1">
          <mxGeometry width="50" height="50" relative="1" as="geometry">
            <mxPoint x="560" y="650" as="sourcePoint" />
            <mxPoint x="910" y="830" as="targetPoint" />
            <Array as="points">
              <mxPoint x="960" y="820" />
              <mxPoint x="960" y="490" />
            </Array>
          </mxGeometry>
        </mxCell>
        <mxCell id="uR3nYqb9deHCnydZUrav-34" style="edgeStyle=orthogonalEdgeStyle;rounded=0;orthogonalLoop=1;jettySize=auto;html=1;exitX=0.5;exitY=1;exitDx=0;exitDy=0;entryX=0.5;entryY=0;entryDx=0;entryDy=0;" parent="1" source="uR3nYqb9deHCnydZUrav-25" target="uR3nYqb9deHCnydZUrav-33" edge="1">
          <mxGeometry relative="1" as="geometry" />
        </mxCell>
        <mxCell id="uR3nYqb9deHCnydZUrav-25" value="Вывод строки (String_2)" style="shape=parallelogram;perimeter=parallelogramPerimeter;whiteSpace=wrap;html=1;fixedSize=1;" parent="1" vertex="1">
          <mxGeometry x="295" y="940" width="190" height="60" as="geometry" />
        </mxCell>
        <mxCell id="uR3nYqb9deHCnydZUrav-26" value="" style="endArrow=classic;html=1;rounded=0;exitX=0;exitY=0.5;exitDx=0;exitDy=0;entryX=0;entryY=0.5;entryDx=0;entryDy=0;" parent="1" source="uR3nYqb9deHCnydZUrav-8" target="uR3nYqb9deHCnydZUrav-25" edge="1">
          <mxGeometry width="50" height="50" relative="1" as="geometry">
            <mxPoint x="560" y="650" as="sourcePoint" />
            <mxPoint x="610" y="600" as="targetPoint" />
            <Array as="points">
              <mxPoint x="190" y="585" />
              <mxPoint x="190" y="970" />
            </Array>
          </mxGeometry>
        </mxCell>
        <mxCell id="uR3nYqb9deHCnydZUrav-27" value="True" style="edgeLabel;html=1;align=center;verticalAlign=middle;resizable=0;points=[];" parent="uR3nYqb9deHCnydZUrav-26" vertex="1" connectable="0">
          <mxGeometry x="-0.8067" y="4" relative="1" as="geometry">
            <mxPoint x="7" y="-19" as="offset" />
          </mxGeometry>
        </mxCell>
        <mxCell id="uR3nYqb9deHCnydZUrav-32" style="edgeStyle=orthogonalEdgeStyle;rounded=0;orthogonalLoop=1;jettySize=auto;html=1;exitX=0.5;exitY=1;exitDx=0;exitDy=0;entryX=0;entryY=0.5;entryDx=0;entryDy=0;" parent="1" source="uR3nYqb9deHCnydZUrav-31" target="uR3nYqb9deHCnydZUrav-25" edge="1">
          <mxGeometry relative="1" as="geometry">
            <Array as="points">
              <mxPoint x="110" y="970" />
            </Array>
          </mxGeometry>
        </mxCell>
        <mxCell id="uR3nYqb9deHCnydZUrav-31" value="string_2 = &quot;Пустая строка&quot;;" style="rounded=0;whiteSpace=wrap;html=1;" parent="1" vertex="1">
          <mxGeometry x="50" y="750" width="120" height="60" as="geometry" />
        </mxCell>
        <mxCell id="uR3nYqb9deHCnydZUrav-33" value="Конец функции" style="rounded=1;whiteSpace=wrap;html=1;" parent="1" vertex="1">
          <mxGeometry x="330" y="1070" width="120" height="60" as="geometry" />
        </mxCell>
      </root>
    </mxGraphModel>
  </diagram>
</mxfile>
